<svg xmlns="http://www.w3.org/2000/svg" viewBox="0 0 292 152"><g fill="none" fill-rule="evenodd"><path fill="#C9FD63" d="M15 0h262c0 30 15 46 15 76s-15 46-15 76H15c0-30-15-46-15-76S15 30 15 0z"/><path fill="#000" d="M91.72 134h-4.96l-8.44-18.84V134h-4.04v-24.92h5.48l7.92 17.84v-17.84H92c.04.04.08.12.08.2 0 .12-.04.24-.12.4-.12.12-.2.4-.24.8V134zm6.38-16.04c1.92-2.04 4.28-3.04 7.08-3.04 1.16 0 2.24.16 3.2.44.92.28 1.72.76 2.4 1.4.64.64 1.12 1.44 1.48 2.44.36.96.52 2.12.52 3.44V134h-4.28v-1.68c-.68.68-1.52 1.2-2.52 1.6-.96.36-1.92.56-2.92.56-1.08 0-2.04-.16-2.84-.44a6.12 6.12 0 0 1-2-1.16c-.48-.52-.88-1.08-1.12-1.76-.28-.68-.4-1.36-.4-2.08 0-.96.2-1.84.64-2.64.4-.8 1-1.48 1.76-2.08.8-.6 1.8-1.04 2.96-1.36 1.16-.32 2.52-.48 4.04-.48h2.36c-.04-1.4-.32-2.44-.88-3.08-.52-.64-1.4-.96-2.56-.96-1.52 0-3.08.84-4.64 2.48l-2.28-2.96zm8.84 7.88c-1.16-.04-2.16.04-2.88.2-.8.16-1.36.4-1.8.68-.44.28-.72.64-.88.96-.16.4-.24.76-.24 1.12 0 .32.08.6.2.88.16.28.36.48.6.72.24.16.52.36.84.48.36.12.72.2 1.08.2.6 0 1.16-.12 1.64-.32.52-.2.96-.48 1.28-.76.4-.32.68-.64.96-.96.24-.32.4-.6.52-.84.12-.2.2-.48.24-.84.04-.4.08-.88.08-1.48l-1.64-.04zm28.98 8.16h-4.96l-8.44-18.84V134h-4.04v-24.92h5.48l7.92 17.84v-17.84h4.32c.04.04.08.12.08.2 0 .12-.04.24-.12.4-.12.12-.2.4-.24.8V134zm19.42-21.92c.84 1.08 1.48 2.48 1.96 4.16.48 1.72.72 3.6.72 5.68 0 2.2-.24 4.08-.72 5.68-.48 1.6-1.12 2.92-1.92 4a7.96 7.96 0 0 1-2.8 2.4c-1.08.48-2.16.76-3.28.76-1.16 0-2.28-.32-3.36-.92-1.04-.64-1.96-1.52-2.72-2.68-.8-1.16-1.44-2.52-1.88-4.12-.44-1.6-.68-3.36-.68-5.32 0-1.96.24-3.72.72-5.32.44-1.64 1.08-3.04 1.84-4.16.8-1.2 1.72-2.08 2.8-2.72 1.04-.64 2.12-.96 3.28-.96.68 0 1.28.08 1.84.24.56.12 1.08.36 1.6.64.48.28.92.64 1.36 1.12.4.4.8.92 1.24 1.52zm-2.92 2.84c-.32-.76-.76-1.4-1.28-1.8-.52-.48-1.12-.68-1.8-.68-.6 0-1.16.2-1.68.64s-1 1-1.4 1.8c-.4.72-.72 1.68-.96 2.72-.24 1.12-.36 2.28-.36 3.6 0 .24 0 .48.04.8 0 .24 0 .56.04.84.04.28.04.6.04.84.04.32.04.52.08.72l7.28-9.48zm-6.16 13.36c.32.76.76 1.4 1.28 1.8.52.48 1.12.68 1.8.68.6 0 1.16-.2 1.64-.64.56-.44 1-1 1.44-1.8.4-.72.72-1.64.96-2.72.24-1.08.36-2.28.36-3.6 0-.24 0-.52-.04-.8 0-.28 0-.6-.04-.88s-.04-.56-.08-.84c-.04-.28-.04-.48-.04-.68l-7.28 9.48zm17.7-8.92h15V123h-15v-3.64zm29.2-10.28V134h-4.4v-19.84l-4.28 1.28-1.08-2.72 6.76-3.64h3zm11.1 0h6.44c1.12 0 2.12.08 2.92.24.88.16 1.6.4 2.24.68.68.28 1.24.64 1.76 1.08.48.44.92.92 1.36 1.48.84 1.16 1.48 2.48 1.92 4 .44 1.56.64 3.28.64 5.16 0 1.88-.2 3.6-.64 5.08-.44 1.52-1.12 2.8-2 3.88-.96 1.08-2.12 1.88-3.52 2.44-1.44.6-3.16.88-5.16.88h-5.96v-24.92zm4.36 3.72v17.68h1.52c2.36 0 4.08-.76 5.24-2.24 1.12-1.48 1.68-3.64 1.68-6.4 0-1.4-.12-2.68-.36-3.76-.24-1.12-.64-2.08-1.16-2.88-.52-.76-1.2-1.36-2-1.76-.84-.44-1.84-.64-3-.64h-1.92zM45 30h4v92h-4V30zm28 0h4v67h-4V30zm16 0h4v67h-4V30zm-38 0h2v92h-2V30zm16 0h2v67h-2V30zm32 0h2v67h-2V30zm6 0h2v67h-2V30zm16 0h2v67h-2V30zm8 0h2v67h-2V30zm4 0h6v67h-6V30zm12 0h4v67h-4V30zm14 0h8v67h-8V30zm10 0h6v67h-6V30zm8 0h4v67h-4V30zm14 0h6v67h-6V30zm8 0h4v67h-4V30zm6 0h8v67h-8V30zm10 0h4v67h-4V30zm6 0h4v67h-4V30zm10 0h6v92h-6V30zm12 0h4v92h-4V30zm-92 0h2v67h-2V30zm4 0h2v67h-2V30zm30 0h2v67h-2V30zm54 0h2v92h-2V30zm-128 0h4v67h-4V30zm-54 0h6v92h-6V30zm24 0h6v67h-6V30z"/></g></svg>